<svg width="4864" height="902" viewBox="0 0 4864 902" fill="none" xmlns="http://www.w3.org/2000/svg">
<g clip-path="url(#clip0_923_538)">
<path d="M455.205 842.103C604.92 1028.68 1006.04 740.319 1006.04 488.538C1006.04 301.043 824.117 17.1039 572.859 1.05215C348.702 -13.266 16.6773 118.904 0.63093 376.042C-15.4154 633.18 278.358 621.719 455.205 842.103Z" fill="#7A63FF"/>
</g>
<g clip-path="url(#clip1_923_538)">
<path d="M1652.22 237.694H1767.62V532.316C1767.62 610.216 1748.85 670.638 1711.3 713.583C1673.76 756.528 1619.91 778 1549.75 778C1474.05 778 1419.58 750.369 1386.35 695.107C1369.11 723.071 1347.11 743.877 1320.34 757.526C1293.57 771.175 1261.1 778 1222.95 778C1152.78 778 1099.09 756.528 1061.85 713.583C1024.62 670.638 1006 610.216 1006 532.316V237.694H1121.4V521.33C1121.4 571.932 1129.55 609.217 1145.86 633.186C1162.17 657.155 1188.17 669.14 1223.87 669.14C1259.56 669.14 1286.03 656.989 1303.26 632.687C1320.49 608.385 1329.11 571.266 1329.11 521.33V237.694H1444.51V521.33C1444.51 571.266 1453.12 608.385 1470.36 632.687C1487.59 656.989 1514.05 669.14 1549.75 669.14C1585.44 669.14 1611.45 657.155 1627.76 633.186C1644.07 609.217 1652.22 571.932 1652.22 521.33V237.694ZM2135.96 778C2086.11 778 2041.18 766.348 2001.18 743.045C1961.18 719.741 1929.94 687.283 1907.48 645.67C1885.01 604.057 1873.78 556.951 1873.78 504.352C1873.78 451.753 1885.01 404.813 1907.48 363.533C1929.94 322.252 1961.18 289.961 2001.18 266.657C2041.18 243.354 2086.11 231.702 2135.96 231.702C2186.43 231.702 2231.67 243.354 2271.67 266.657C2311.67 289.961 2342.91 322.252 2365.37 363.533C2387.84 404.813 2399.07 451.753 2399.07 504.352C2399.07 556.951 2387.84 604.057 2365.37 645.67C2342.91 687.283 2311.67 719.741 2271.67 743.045C2231.67 766.348 2186.43 778 2135.96 778ZM2135.96 671.137C2178.43 671.137 2213.51 655.824 2241.2 625.196C2268.9 594.569 2282.75 554.288 2282.75 504.352C2282.75 454.416 2268.9 414.134 2241.2 383.507C2213.51 352.88 2178.43 337.566 2135.96 337.566C2093.5 337.566 2058.57 352.88 2031.18 383.507C2003.8 414.134 1990.1 454.416 1990.1 504.352C1990.1 554.288 2003.8 594.569 2031.18 625.196C2058.57 655.824 2093.5 671.137 2135.96 671.137ZM2619.71 315.594C2652.94 259.666 2711.41 231.702 2795.11 231.702V350.549C2785.26 348.552 2776.34 347.553 2768.34 347.553C2723.41 347.553 2688.33 361.702 2663.09 389.999C2637.86 418.296 2625.24 459.077 2625.24 512.341V771.009H2509.85V237.694H2619.71V315.594ZM3265 771.009L3094.22 542.303L3008.36 630.19V771.009H2892.96V29.9615H3008.36V477.386L3247.46 237.694H3385.94L3180.07 461.407L3405.33 771.009H3265ZM3475.49 771.009V237.694H3590.88V771.009H3475.49ZM3533.65 149.807C3512.72 149.807 3495.18 142.65 3481.03 128.335C3466.87 114.02 3459.79 96.2097 3459.79 74.9037C3459.79 53.5978 3466.87 35.7873 3481.03 21.4724C3495.18 7.15743 3512.72 0 3533.65 0C3554.57 0 3572.11 6.82455 3586.27 20.4737C3600.42 34.1228 3607.5 51.2674 3607.5 71.9076C3607.5 93.8793 3600.58 112.356 3586.73 127.336C3572.88 142.317 3555.19 149.807 3533.65 149.807ZM4022 231.702C4084.16 231.702 4134.02 251.344 4171.56 290.626C4209.1 329.909 4227.87 388.168 4227.87 465.402V771.009H4112.48V481.381C4112.48 434.774 4102.32 399.653 4082.01 376.017C4061.7 352.38 4032.77 340.562 3995.23 340.562C3952.77 340.562 3919.22 354.378 3894.61 382.009C3869.99 409.64 3857.68 449.422 3857.68 501.356V771.009H3742.28V237.694H3852.14V306.606C3871.22 281.971 3895.22 263.328 3924.15 250.678C3953.07 238.027 3985.69 231.702 4022 231.702ZM4600.83 778C4550.98 778 4506.05 766.348 4466.05 743.045C4426.05 719.741 4394.81 687.283 4372.35 645.67C4349.88 604.057 4338.65 556.951 4338.65 504.352C4338.65 451.753 4349.88 404.813 4372.35 363.533C4394.81 322.252 4426.05 289.961 4466.05 266.657C4506.05 243.354 4550.98 231.702 4600.83 231.702C4651.3 231.702 4696.54 243.354 4736.54 266.657C4776.54 289.961 4807.78 322.252 4830.24 363.533C4852.71 404.813 4863.94 451.753 4863.94 504.352C4863.94 556.951 4852.71 604.057 4830.24 645.67C4807.78 687.283 4776.54 719.741 4736.54 743.045C4696.54 766.348 4651.3 778 4600.83 778ZM4600.83 671.137C4643.3 671.137 4678.38 655.824 4706.08 625.196C4733.77 594.569 4747.62 554.288 4747.62 504.352C4747.62 454.416 4733.77 414.134 4706.08 383.507C4678.38 352.88 4643.3 337.566 4600.83 337.566C4558.37 337.566 4523.44 352.88 4496.05 383.507C4468.67 414.134 4454.97 454.416 4454.97 504.352C4454.97 554.288 4468.67 594.569 4496.05 625.196C4523.44 655.824 4558.37 671.137 4600.83 671.137Z" fill="#E7E7E7"/>
<g clip-path="url(#clip2_923_538)">
<path d="M1684.45 271.538H1799.85V566.16C1799.85 644.06 1781.08 704.482 1743.53 747.427C1705.99 790.371 1652.14 811.844 1581.98 811.844C1506.28 811.844 1451.81 784.213 1418.58 728.95C1401.34 756.914 1379.34 777.721 1352.57 791.37C1325.8 805.019 1293.33 811.844 1255.18 811.844C1185.01 811.844 1131.32 790.371 1094.08 747.427C1056.85 704.482 1038.23 644.06 1038.23 566.16V271.538H1153.63V555.174C1153.63 605.775 1161.78 643.061 1178.09 667.03C1194.4 690.999 1220.4 702.984 1256.1 702.984C1291.79 702.984 1318.26 690.833 1335.49 666.531C1352.72 642.229 1361.34 605.11 1361.34 555.174V271.538H1476.74V555.174C1476.74 605.11 1485.35 642.229 1502.59 666.531C1519.82 690.833 1546.28 702.984 1581.98 702.984C1617.67 702.984 1643.68 690.999 1659.99 667.03C1676.3 643.061 1684.45 605.775 1684.45 555.174V271.538ZM2168.19 811.844C2118.34 811.844 2073.41 800.192 2033.41 776.889C1993.41 753.585 1962.17 721.127 1939.71 679.514C1917.24 637.901 1906.01 590.795 1906.01 538.196C1906.01 485.597 1917.24 438.657 1939.71 397.377C1962.17 356.096 1993.41 323.804 2033.41 300.501C2073.41 277.198 2118.34 265.546 2168.19 265.546C2218.66 265.546 2263.9 277.198 2303.9 300.501C2343.9 323.804 2375.14 356.096 2397.6 397.377C2420.07 438.657 2431.3 485.597 2431.3 538.196C2431.3 590.795 2420.07 637.901 2397.6 679.514C2375.14 721.127 2343.9 753.585 2303.9 776.889C2263.9 800.192 2218.66 811.844 2168.19 811.844ZM2168.19 704.981C2210.66 704.981 2245.74 689.668 2273.43 659.04C2301.13 628.413 2314.98 588.131 2314.98 538.196C2314.98 488.26 2301.13 447.978 2273.43 417.351C2245.74 386.724 2210.66 371.41 2168.19 371.41C2125.73 371.41 2090.8 386.724 2063.41 417.351C2036.03 447.978 2022.33 488.26 2022.33 538.196C2022.33 588.131 2036.03 628.413 2063.41 659.04C2090.8 689.668 2125.73 704.981 2168.19 704.981ZM2651.94 349.438C2685.17 293.51 2743.64 265.546 2827.34 265.546V384.393C2817.49 382.396 2808.57 381.397 2800.57 381.397C2755.64 381.397 2720.56 395.546 2695.32 423.843C2670.09 452.14 2657.47 492.92 2657.47 546.185V804.853H2542.08V271.538H2651.94V349.438ZM3297.23 804.853L3126.45 576.147L3040.59 664.034V804.853H2925.19V63.8053H3040.59V511.23L3279.69 271.538H3418.17L3212.3 495.251L3437.56 804.853H3297.23ZM3507.72 804.853V271.538H3623.11V804.853H3507.72ZM3565.88 183.651C3544.95 183.651 3527.41 176.494 3513.26 162.179C3499.1 147.864 3492.02 130.054 3492.02 108.748C3492.02 87.4416 3499.1 69.6312 3513.26 55.3162C3527.41 41.0013 3544.95 33.8439 3565.88 33.8439C3586.8 33.8439 3604.34 40.6684 3618.5 54.3175C3632.65 67.9667 3639.73 85.1113 3639.73 105.751C3639.73 127.723 3632.81 146.199 3618.96 161.18C3605.11 176.161 3587.42 183.651 3565.88 183.651ZM4054.23 265.546C4116.39 265.546 4166.25 285.187 4203.79 324.47C4241.33 363.753 4260.1 422.012 4260.1 499.246V804.853H4144.71V515.225C4144.71 468.618 4134.55 433.497 4114.24 409.861C4093.93 386.224 4065 374.406 4027.46 374.406C3985 374.406 3951.45 388.222 3926.84 415.853C3902.22 443.484 3889.91 483.266 3889.91 535.199V804.853H3774.51V271.538H3884.37V340.45C3903.45 315.815 3927.45 297.172 3956.38 284.522C3985.3 271.871 4017.92 265.546 4054.23 265.546ZM4633.06 811.844C4583.21 811.844 4538.28 800.192 4498.28 776.889C4458.28 753.585 4427.04 721.127 4404.58 679.514C4382.11 637.901 4370.88 590.795 4370.88 538.196C4370.88 485.597 4382.11 438.657 4404.58 397.377C4427.04 356.096 4458.28 323.804 4498.28 300.501C4538.28 277.198 4583.21 265.546 4633.06 265.546C4683.53 265.546 4728.77 277.198 4768.77 300.501C4808.77 323.804 4840.01 356.096 4862.47 397.377C4884.94 438.657 4896.17 485.597 4896.17 538.196C4896.17 590.795 4884.94 637.901 4862.47 679.514C4840.01 721.127 4808.77 753.585 4768.77 776.889C4728.77 800.192 4683.53 811.844 4633.06 811.844ZM4633.06 704.981C4675.53 704.981 4710.61 689.668 4738.31 659.04C4766 628.413 4779.85 588.131 4779.85 538.196C4779.85 488.26 4766 447.978 4738.31 417.351C4710.61 386.724 4675.53 371.41 4633.06 371.41C4590.6 371.41 4555.67 386.724 4528.28 417.351C4500.9 447.978 4487.2 488.26 4487.2 538.196C4487.2 588.131 4500.9 628.413 4528.28 659.04C4555.67 689.668 4590.6 704.981 4633.06 704.981Z" fill="black"/>
</g>
</g>
<defs>
<clipPath id="clip0_923_538">
<rect width="1006.04" height="901.74" fill="white"/>
</clipPath>
<clipPath id="clip1_923_538">
<rect width="3857.94" height="778" fill="white" transform="translate(1006)"/>
</clipPath>
<clipPath id="clip2_923_538">
<rect width="3857.94" height="778" fill="white" transform="translate(1038.23 33.8439)"/>
</clipPath>
</defs>
</svg>
